<?xml version="1.0" encoding="UTF-8"?>
<svg id="Capa_2" data-name="Capa 2" xmlns="http://www.w3.org/2000/svg" height="28" width="28" viewBox="0 0 28 28">
  <defs>
    <style>
      .cls-1 {
        fill: #05f0b0;
        stroke-width: 0px;
      }
    </style>
  </defs>
  <g id="Capa_2-2" data-name="Capa 2">
    <g id="Capa_1-2" data-name="Capa 1-2">
      <path class="cls-1" d="M14,0C6.26,0,0,6.26,0,14s6.26,14,14,14,14-6.26,14-14S21.73,0,14,0ZM23.2,15.72c0,1.04,0,1.56-.24,2s-.7.69-1.6,1.21l-3.27,1.88c-1.81,1.04-2.71,1.56-3.7,1.56s-1.89-.53-3.7-1.56l-3.09-1.79s-.06-.04-.07-.05c-1.68-.99-2.73-2.79-2.74-4.75v-.16c.01-1.96,1.06-3.76,2.74-4.75.01,0,.04-.02.07-.05l4.94-2.85c.9-.51,1.35-.78,1.84-.78s.95.26,1.84.78l5.75,3.3c.26.15.42.42.42.72s-.16.57-.42.72l-5.74,3.3c-.9.51-1.35.78-1.84.78s-.95-.26-1.84-.78l-3.8-2.19c-.47-.27-1.05-.27-1.52,0-.54.3-.86.88-.86,1.49v.88c0,1.11.6,2.15,1.56,2.71,0,0,.01,0,.02.01l4.58,2.65c.9.53,1.35.78,1.84.78s.95-.26,1.84-.78l4.9-2.82c.22-.13.34-.2.4-.3s.06-.23.06-.5v-.91c0-.17,0-.27-.06-.3-.06-.03-.14,0-.29.11l-5.94,3.43c-.46.26-.68.38-.92.38s-.48-.13-.92-.38l-4.85-2.8c-.16-.09-.25-.14-.31-.2-.15-.13-.26-.32-.29-.51-.02-.09-.02-.19-.02-.37,0-.26,0-.4.04-.48.08-.2.28-.32.49-.28.09.01.21.08.43.21l4.54,2.6c.46.26.68.38.92.38s.47-.13.92-.38l6.7-3.85c.24-.14.54-.14.78,0,.26.14.41.41.41.7v2.02-.02Z"/>
    </g>
  </g>
</svg>
