<svg width="20" height="21" viewBox="0 0 20 21" fill="none" xmlns="http://www.w3.org/2000/svg">
<g id="icon-share">
<path id="Vector" d="M16.4706 12.4737C16.2656 12.4737 16.069 12.5569 15.9241 12.7049C15.7792 12.853 15.6978 13.0538 15.6978 13.2632V15.6316C15.6978 15.841 15.6164 16.0418 15.4714 16.1898C15.3265 16.3379 15.1299 16.4211 14.925 16.4211H5.6514C5.44644 16.4211 5.24988 16.3379 5.10495 16.1898C4.96002 16.0418 4.8786 15.841 4.8786 15.6316V6.15791C4.8786 5.94852 4.96002 5.74772 5.10495 5.59966C5.24988 5.45161 5.44644 5.36843 5.6514 5.36843H8.74259C8.94755 5.36843 9.14411 5.28526 9.28904 5.1372C9.43397 4.98915 9.51539 4.78834 9.51539 4.57896C9.51539 4.36958 9.43397 4.16877 9.28904 4.02072C9.14411 3.87266 8.94755 3.78949 8.74259 3.78949H5.6514C5.03652 3.78949 4.44683 4.03902 4.01205 4.48318C3.57727 4.92734 3.33301 5.52976 3.33301 6.15791V15.6316C3.33301 16.2597 3.57727 16.8621 4.01205 17.3063C4.44683 17.7505 5.03652 18 5.6514 18H14.925C15.5398 18 16.1295 17.7505 16.5643 17.3063C16.9991 16.8621 17.2434 16.2597 17.2434 15.6316V13.2632C17.2434 13.0538 17.1619 12.853 17.017 12.7049C16.8721 12.5569 16.6755 12.4737 16.4706 12.4737ZM15.3809 6.15791H14.1522C12.3075 6.15791 10.5385 6.90649 9.23412 8.23899C7.92977 9.57148 7.197 11.3787 7.197 13.2632C7.197 13.4725 7.27842 13.6733 7.42334 13.8214C7.56827 13.9695 7.76483 14.0526 7.96979 14.0526C8.17475 14.0526 8.37132 13.9695 8.51624 13.8214C8.66117 13.6733 8.74259 13.4725 8.74259 13.2632C8.74259 11.7975 9.31253 10.3919 10.327 9.35547C11.3415 8.31909 12.7175 7.73685 14.1522 7.73685H15.3809L13.6035 9.54474C13.5319 9.61851 13.4752 9.706 13.4367 9.80219C13.3983 9.89837 13.3788 10.0014 13.3794 10.1053C13.3794 10.3147 13.4608 10.5155 13.6057 10.6635C13.7507 10.8116 13.9472 10.8947 14.1522 10.8947C14.2539 10.8953 14.3547 10.8754 14.4489 10.8361C14.543 10.7969 14.6286 10.739 14.7009 10.6658L18.333 6.94738L14.7009 3.22896C14.6286 3.15579 14.543 3.0979 14.4489 3.05861C14.3547 3.01933 14.2539 2.99941 14.1522 3.00001C13.9472 3.00001 13.7507 3.08319 13.6057 3.23124C13.4608 3.3793 13.3794 3.5801 13.3794 3.78949C13.3788 3.89339 13.3983 3.99638 13.4367 4.09257C13.4752 4.18876 13.5319 4.27624 13.6035 4.35001L15.3809 6.15791Z" fill="white"/>
</g>
</svg>
