<svg xmlns="http://www.w3.org/2000/svg" width="28" height="28" fill="none"><g fill="#05F0B0"><path fill-rule="evenodd" d="M14.003 0C6.273 0 .007 6.268.007 14s6.266 14 13.996 14 13.996-6.268 13.996-14S21.733 0 14.003 0Zm-3.077 6.578c.796-.036 1.05-.045 3.078-.045H14c2.028 0 2.282.01 3.078.045.795.037 1.337.163 1.813.347.492.19.907.446 1.322.861.415.415.67.832.862 1.323.183.475.31 1.017.346 1.812.036.797.046 1.051.046 3.08 0 2.027-.01 2.28-.046 3.077-.037.795-.163 1.338-.346 1.813-.192.49-.447.907-.862 1.322-.415.415-.83.671-1.321.862-.475.184-1.018.31-1.813.347-.796.036-1.05.045-3.077.045s-2.282-.009-3.078-.045c-.794-.037-1.337-.163-1.812-.347a3.654 3.654 0 0 1-1.322-.862 3.658 3.658 0 0 1-.86-1.323c-.185-.474-.311-1.017-.348-1.812-.036-.796-.045-1.05-.045-3.078 0-2.028.01-2.282.045-3.079.036-.794.162-1.337.347-1.812.191-.491.446-.908.862-1.323.415-.415.831-.67 1.322-.86.475-.185 1.017-.311 1.812-.348Z" clip-rule="evenodd"/><path fill-rule="evenodd" d="M13.334 7.879H14.004c1.993 0 2.229.007 3.016.043.728.033 1.123.155 1.386.257.348.135.597.297.858.558.261.262.423.51.558.859.103.263.224.658.258 1.386.035.787.043 1.024.043 3.016 0 1.993-.008 2.23-.044 3.017-.033.727-.154 1.123-.257 1.386a2.308 2.308 0 0 1-.558.857c-.261.262-.51.423-.858.559-.263.102-.658.224-1.386.257-.787.036-1.023.044-3.016.044s-2.23-.008-3.017-.044c-.727-.034-1.122-.155-1.386-.257a2.31 2.31 0 0 1-.858-.559 2.314 2.314 0 0 1-.559-.858c-.102-.263-.224-.658-.257-1.386-.036-.787-.043-1.024-.043-3.018 0-1.994.007-2.229.043-3.016.033-.728.155-1.123.257-1.386.136-.349.298-.598.559-.859.261-.261.51-.423.858-.559.263-.102.659-.224 1.386-.257.689-.031.956-.04 2.347-.042v.002Zm4.654 1.24a.896.896 0 1 0 0 1.792.896.896 0 0 0 0-1.793ZM10.17 14a3.834 3.834 0 1 1 7.668 0 3.834 3.834 0 0 1-7.668 0Z" clip-rule="evenodd"/><path d="M14.004 11.511a2.489 2.489 0 1 1 0 4.977 2.489 2.489 0 0 1 0-4.977Z"/></g></svg>