<svg width="29" height="28" viewBox="0 0 29 28" fill="none" xmlns="http://www.w3.org/2000/svg">
<g clip-path="url(#clip0_285_156)">
<path d="M14.9858 28C22.7178 28 28.9858 21.732 28.9858 14C28.9858 6.26801 22.7178 0 14.9858 0C7.25385 0 0.98584 6.26801 0.98584 14C0.98584 21.732 7.25385 28 14.9858 28Z" fill="#05F0B0"/>
<path fill-rule="evenodd" clip-rule="evenodd" d="M7.32326 13.8523C11.4046 12.0738 14.1258 10.9019 15.4876 10.3353C19.3758 8.71819 20.1836 8.4371 20.7102 8.4278C20.8261 8.42616 21.0848 8.4546 21.2527 8.59077C21.3944 8.70561 21.4332 8.86093 21.4518 8.96975C21.4704 9.07913 21.4939 9.32686 21.4753 9.521C21.2647 11.7348 20.3531 17.1067 19.8894 19.5862C19.693 20.6357 19.3064 20.9873 18.9323 21.0218C18.1197 21.0967 17.5022 20.4842 16.7147 19.968C15.4826 19.1608 14.7865 18.6576 13.5904 17.8696C12.2079 16.9585 13.1043 16.4581 13.8918 15.64C14.0979 15.4256 17.68 12.1673 17.7494 11.872C17.7582 11.8348 17.7664 11.697 17.6844 11.6243C17.6023 11.5515 17.4815 11.5767 17.3945 11.5964C17.2709 11.6243 15.3027 12.9253 11.4894 15.4994C10.9304 15.8833 10.424 16.0698 9.97068 16.0605C9.47083 16.0496 8.50943 15.7778 7.79466 15.5454C6.91802 15.2605 6.2213 15.1095 6.28201 14.6255C6.31318 14.3734 6.66044 14.1158 7.32326 13.8523Z" fill="#0F0F0F"/>
</g>
<defs>
<clipPath id="clip0_285_156">
<rect width="28" height="28" fill="white" transform="translate(0.98584)"/>
</clipPath>
</defs>
</svg>
