<svg width="28" height="28" viewBox="0 0 28 28" fill="none" xmlns="http://www.w3.org/2000/svg">
<g id="Twitter">
<path id="Combined-Shape" fill-rule="evenodd" clip-rule="evenodd" d="M14.0068 0C6.277 0 0.0107422 6.26801 0.0107422 14C0.0107422 21.732 6.277 28 14.0068 28C21.7366 28 28.0029 21.732 28.0029 14C28.0029 6.26801 21.7366 0 14.0068 0ZM13.617 11.8638L13.5876 11.3794C13.4995 10.1238 14.2729 8.97699 15.4967 8.5321C15.947 8.37392 16.7106 8.35415 17.2099 8.49256C17.4057 8.55188 17.7778 8.7496 18.0421 8.92756L18.5218 9.25381L19.0504 9.08574C19.3441 8.99676 19.7357 8.84847 19.912 8.7496C20.0784 8.66063 20.2252 8.61119 20.2252 8.64085C20.2252 8.80892 19.863 9.38233 19.5595 9.69869C19.1483 10.1436 19.2658 10.1831 20.098 9.88653C20.5973 9.71847 20.6071 9.71847 20.5092 9.90631C20.4504 10.0052 20.1469 10.3512 19.8239 10.6676C19.2756 11.2113 19.2462 11.2706 19.2462 11.7254C19.2462 12.4273 18.9134 13.8905 18.5805 14.6913C17.9638 16.194 16.6421 17.7462 15.3205 18.5272C13.4604 19.6246 10.9835 19.9014 8.89825 19.2588C8.20316 19.0413 7.00878 18.4877 7.00878 18.3888C7.00878 18.3591 7.37101 18.3196 7.81156 18.3097C8.73182 18.2899 9.65208 18.0329 10.4353 17.5781L10.9639 17.2618L10.357 17.0541C9.49544 16.7576 8.72203 16.0754 8.52623 15.4328C8.46749 15.2252 8.48707 15.2153 9.03531 15.2153L9.60313 15.2054L9.12342 14.978C8.5556 14.6913 8.03673 14.2069 7.78219 13.7126C7.59618 13.3566 7.36122 12.457 7.42975 12.3878C7.44933 12.3581 7.65492 12.4174 7.88988 12.4965C8.56539 12.7437 8.6535 12.6844 8.2619 12.2691C7.52765 11.5178 7.30248 10.4006 7.65492 9.34278L7.82135 8.86824L8.46749 9.51085C9.78914 10.806 11.3457 11.5771 13.1275 11.8045L13.617 11.8638Z" fill="#05F0B0"/>
</g>
</svg>
