<svg xmlns="http://www.w3.org/2000/svg" width="28" height="28" fill="none"><path fill="#05F0B0" fill-rule="evenodd" d="M13.999 0C6.269 0 .003 6.268.003 14s6.266 14 13.996 14 13.996-6.268 13.996-14S21.73 0 14 0Zm5.833 9.187a1.896 1.896 0 0 1 1.32 1.356c.312 1.195.312 3.69.312 3.69s0 2.495-.312 3.691a1.896 1.896 0 0 1-1.32 1.356c-1.165.32-5.833.32-5.833.32s-4.668 0-5.833-.32a1.896 1.896 0 0 1-1.32-1.356c-.312-1.196-.312-3.69-.312-3.69s0-2.496.312-3.691c.172-.66.678-1.18 1.32-1.356 1.165-.32 5.833-.32 5.833-.32s4.668 0 5.833.32Z" clip-rule="evenodd"/><path fill="#05F0B0" d="M12.6 16.8v-4.667l3.732 2.334L12.6 16.8Z"/></svg>