<svg width="100%" height="100%" style="overflow:visible;" preserveAspectRatio="none" viewBox="0 0 40 40" fill="none" xmlns="http://www.w3.org/2000/svg"><g clip-path="url(#clip0_27_1042)"><path fill-rule="evenodd" clip-rule="evenodd" d="M40 20C40 8.95431 31.0457 3.70216e-07 20 2.38498e-07C8.95431 1.06779e-07 3.70216e-07 8.95431 2.38498e-07 20C1.06779e-07 31.0457 8.9543 40 20 40C31.0457 40 40 31.0457 40 20ZM13.4142 24.4064C12.6332 25.1979 11.3668 25.1979 10.5858 24.4064C9.80474 23.6149 9.80474 22.3316 10.5858 21.5401L20 12L29.4142 21.5401C30.1953 22.3316 30.1953 23.6149 29.4142 24.4064C28.6332 25.1979 27.3668 25.1979 26.5858 24.4064L20 17.7325L13.4142 24.4064Z" fill="#5D07F9"/></g><defs><clipPath id="clip0_27_1042"><rect width="40" height="40" fill="white" transform="translate(0 40) rotate(-90)"/></clipPath></defs></svg>