<svg width="100%" height="100%" style="overflow:visible;" preserveAspectRatio="none" viewBox="0 0 40 40" fill="none" xmlns="http://www.w3.org/2000/svg"><g clip-path="url(#clip0_19_337)"><path fill-rule="evenodd" clip-rule="evenodd" d="M-8.74228e-07 20C-1.35705e-06 31.0457 8.9543 40 20 40C31.0457 40 40 31.0457 40 20C40 8.9543 31.0457 -3.91405e-07 20 -8.74228e-07C8.95431 -1.35705e-06 -3.91405e-07 8.9543 -8.74228e-07 20ZM26.5858 15.5936C27.3668 14.8021 28.6332 14.8021 29.4142 15.5936C30.1953 16.3851 30.1953 17.6684 29.4142 18.4599L20 28L10.5858 18.4599C9.80474 17.6684 9.80474 16.3851 10.5858 15.5936C11.3668 14.8021 12.6332 14.8021 13.4142 15.5936L20 22.2675L26.5858 15.5936Z" fill="#5D07F9"/></g><defs><clipPath id="clip0_19_337"><rect width="40" height="40" fill="white" transform="translate(40) rotate(90)"/></clipPath></defs></svg>