        <svg
          width="166"
          height="20"
          viewBox="0 0 166 20"
          fill="none"
          xmlns="http://www.w3.org/2000/svg"
        >
          <path
            d="M6.94778 20C5.62977 20 4.44357 19.775 3.38916 19.3249C2.33475 18.8561 1.50629 18.1997 0.903776 17.3558C0.301259 16.512 0 15.5274 0 14.4023H3.44565C3.52096 15.2461 3.85046 15.94 4.43415 16.4838C5.03667 17.0277 5.87454 17.2996 6.94778 17.2996C8.05867 17.2996 8.92479 17.037 9.54613 16.512C10.1675 15.9681 10.4782 15.2743 10.4782 14.4304C10.4782 13.774 10.2805 13.2396 9.88505 12.827C9.50848 12.4144 9.02835 12.0956 8.44466 11.8706C7.8798 11.6456 7.08899 11.4018 6.07225 11.1392C4.7919 10.8017 3.74691 10.4641 2.93727 10.1266C2.14647 9.77028 1.46864 9.22644 0.903776 8.49508C0.338916 7.76371 0.056486 6.78856 0.056486 5.56962C0.056486 4.44444 0.338916 3.45992 0.903776 2.61603C1.46864 1.77215 2.25944 1.12518 3.27619 0.675107C4.29294 0.225036 5.46973 0 6.80656 0C8.70826 0 10.2616 0.4782 11.4667 1.4346C12.6905 2.37225 13.3684 3.6662 13.5002 5.31646H9.94154C9.88505 4.60384 9.54613 3.99437 8.92479 3.48804C8.30344 2.98172 7.4844 2.72855 6.46765 2.72855C5.54504 2.72855 4.7919 2.96296 4.20821 3.43179C3.62452 3.90061 3.33267 4.57572 3.33267 5.4571C3.33267 6.0572 3.51155 6.55415 3.86929 6.94796C4.24586 7.32302 4.71658 7.62307 5.28144 7.8481C5.8463 8.07314 6.61828 8.31692 7.59737 8.57946C8.89655 8.93577 9.95095 9.29208 10.7606 9.64838C11.589 10.0047 12.2857 10.5579 12.8506 11.308C13.4343 12.0394 13.7261 13.0239 13.7261 14.2616C13.7261 15.2555 13.4531 16.1932 12.9071 17.0745C12.3798 17.9559 11.5985 18.6685 10.5629 19.2124C9.54613 19.7375 8.3411 20 6.94778 20Z"
            fill="#F8F8F8"
          />
          <path
            d="M29.359 15.8087H21.1403L19.7282 19.8031H16.3673L23.3998 0.225036H27.1278L34.1604 19.8031H30.7712L29.359 15.8087ZM28.4553 13.1927L25.2638 4.10689L22.0441 13.1927H28.4553Z"
            fill="#F8F8F8"
          />
          <path
            d="M49.8992 0.253165V2.8692H44.6743V19.8031H41.4545V2.8692H36.2014V0.253165H49.8992Z"
            fill="#F8F8F8"
          />
          <path
            d="M59.6276 20C58.3096 20 57.1234 19.775 56.069 19.3249C55.0146 18.8561 54.1861 18.1997 53.5836 17.3558C52.9811 16.512 52.6798 15.5274 52.6798 14.4023H56.1255C56.2008 15.2461 56.5303 15.94 57.114 16.4838C57.7165 17.0277 58.5544 17.2996 59.6276 17.2996C60.7385 17.2996 61.6046 17.037 62.226 16.512C62.8473 15.9681 63.158 15.2743 63.158 14.4304C63.158 13.774 62.9603 13.2396 62.5649 12.827C62.1883 12.4144 61.7082 12.0956 61.1245 11.8706C60.5596 11.6456 59.7688 11.4018 58.7521 11.1392C57.4717 10.8017 56.4267 10.4641 55.6171 10.1266C54.8263 9.77028 54.1485 9.22644 53.5836 8.49508C53.0187 7.76371 52.7363 6.78856 52.7363 5.56962C52.7363 4.44444 53.0187 3.45992 53.5836 2.61603C54.1485 1.77215 54.9393 1.12518 55.956 0.675107C56.9727 0.225036 58.1495 0 59.4864 0C61.3881 0 62.9414 0.4782 64.1465 1.4346C65.3703 2.37225 66.0482 3.6662 66.18 5.31646H62.6214C62.5649 4.60384 62.226 3.99437 61.6046 3.48804C60.9833 2.98172 60.1642 2.72855 59.1475 2.72855C58.2249 2.72855 57.4717 2.96296 56.888 3.43179C56.3043 3.90061 56.0125 4.57572 56.0125 5.4571C56.0125 6.0572 56.1914 6.55415 56.5491 6.94796C56.9257 7.32302 57.3964 7.62307 57.9613 7.8481C58.5261 8.07314 59.2981 8.31692 60.2772 8.57946C61.5764 8.93577 62.6308 9.29208 63.4404 9.64838C64.2689 10.0047 64.9655 10.5579 65.5304 11.308C66.1141 12.0394 66.4059 13.0239 66.4059 14.2616C66.4059 15.2555 66.1329 16.1932 65.5869 17.0745C65.0597 17.9559 64.2783 18.6685 63.2427 19.2124C62.226 19.7375 61.0209 20 59.6276 20Z"
            fill="#F8F8F8"
          />
          <path
            d="M80.5064 9.7609C81.5608 9.94843 82.4552 10.5016 83.1895 11.4205C83.9238 12.3394 84.291 13.3802 84.291 14.5429C84.291 15.5368 84.0274 16.4369 83.5002 17.2433C82.9918 18.0309 82.248 18.6592 81.269 19.128C80.2899 19.5781 79.1507 19.8031 77.8516 19.8031H70V0.253165H77.4844C78.8212 0.253165 79.9698 0.4782 80.93 0.928271C81.8903 1.37834 82.6152 1.98781 83.1048 2.75668C83.5943 3.5068 83.8391 4.35068 83.8391 5.28833C83.8391 6.4135 83.5378 7.35115 82.9353 8.10127C82.3328 8.85138 81.5231 9.40459 80.5064 9.7609ZM73.2197 8.46695H77.202C78.2564 8.46695 79.0754 8.23254 79.6591 7.76371C80.2616 7.27614 80.5629 6.58228 80.5629 5.68214C80.5629 4.80075 80.2616 4.11627 79.6591 3.62869C79.0754 3.12236 78.2564 2.8692 77.202 2.8692H73.2197V8.46695ZM77.5691 17.1871C78.6612 17.1871 79.5179 16.9245 80.1392 16.3994C80.7606 15.8744 81.0713 15.143 81.0713 14.2053C81.0713 13.2489 80.7418 12.4895 80.0827 11.9269C79.4237 11.3643 78.5482 11.083 77.4562 11.083H73.2197V17.1871H77.5691Z"
            fill="#F8F8F8"
          />
          <path
            d="M97.9855 19.8031L93.4666 11.9831H91.0095V19.8031H87.7898V0.253165H94.5681C96.0744 0.253165 97.3453 0.515706 98.3809 1.04079C99.4353 1.56587 100.217 2.2691 100.725 3.15049C101.252 4.03188 101.516 5.01641 101.516 6.10408C101.516 7.37928 101.139 8.54196 100.386 9.59212C99.6518 10.6235 98.5127 11.3268 96.9688 11.7018L101.827 19.8031H97.9855ZM91.0095 9.42335H94.5681C95.7731 9.42335 96.6769 9.1233 97.2794 8.52321C97.9008 7.92311 98.2114 7.11674 98.2114 6.10408C98.2114 5.09142 97.9102 4.3038 97.3077 3.74121C96.7052 3.15987 95.792 2.8692 94.5681 2.8692H91.0095V9.42335Z"
            fill="#F8F8F8"
          />
          <path
            d="M108.854 0.253165V19.8031H105.635V0.253165H108.854Z"
            fill="#F8F8F8"
          />
          <path
            d="M119.493 0.253165C121.583 0.253165 123.409 0.656353 124.972 1.46273C126.554 2.25035 127.768 3.39428 128.615 4.89451C129.481 6.376 129.914 8.11064 129.914 10.0985C129.914 12.0863 129.481 13.8115 128.615 15.2743C127.768 16.737 126.554 17.8622 124.972 18.6498C123.409 19.4187 121.583 19.8031 119.493 19.8031H113.082V0.253165H119.493ZM119.493 17.1871C121.79 17.1871 123.55 16.5682 124.774 15.3305C125.998 14.0928 126.61 12.3488 126.61 10.0985C126.61 7.82935 125.998 6.0572 124.774 4.782C123.55 3.5068 121.79 2.8692 119.493 2.8692H116.301V17.1871H119.493Z"
            fill="#F8F8F8"
          />
          <path
            d="M147.312 5.87904C146.803 4.90389 146.097 4.17253 145.193 3.68495C144.29 3.17862 143.245 2.92546 142.058 2.92546C140.759 2.92546 139.601 3.21613 138.585 3.79747C137.568 4.37881 136.768 5.20394 136.184 6.27285C135.619 7.34177 135.337 8.57947 135.337 9.98594C135.337 11.3924 135.619 12.6395 136.184 13.7271C136.768 14.7961 137.568 15.6212 138.585 16.2025C139.601 16.7839 140.759 17.0745 142.058 17.0745C143.81 17.0745 145.231 16.587 146.323 15.6118C147.415 14.6367 148.084 13.3146 148.328 11.6456H140.957V9.08579H151.774V11.5893C151.567 13.1083 151.021 14.5054 150.136 15.7806C149.27 17.0558 148.131 18.0778 146.719 18.8467C145.325 19.5968 143.772 19.9719 142.058 19.9719C140.213 19.9719 138.528 19.5499 137.003 18.706C135.478 17.8434 134.263 16.6526 133.36 15.1336C132.475 13.6146 132.032 11.8987 132.032 9.98594C132.032 8.07314 132.475 6.35724 133.36 4.83826C134.263 3.31927 135.478 2.13783 137.003 1.29395C138.547 0.431317 140.232 0 142.058 0C144.148 0 146.003 0.515706 147.622 1.54712C149.26 2.55978 150.447 4.00375 151.181 5.87904H147.312Z"
            fill="#F8F8F8"
          />
          <path
            d="M158.169 2.84107V8.57946H164.948V11.1955H158.169V17.1871H165.795V19.8031H154.95V0.225036H165.795V2.84107H158.169Z"
            fill="#F8F8F8"
          />
        </svg>