<svg
  width="100%"
  height="100%"
  style="overflow: visible"
  preserveAspectRatio="none"
  viewBox="0 0 165.79 20"
  fill="none"
  xmlns="http://www.w3.org/2000/svg"
>

  <path
    d="M80.5064 9.7609C81.5608 9.94843 82.4552 10.5016 83.1895 11.4205C83.9238 12.3394 84.291 13.3802 84.291 14.5429C84.291 15.5368 84.0274 16.4369 83.5002 17.2433C82.9918 18.0309 82.248 18.6592 81.269 19.128C80.2899 19.5781 79.1507 19.8031 77.8516 19.8031H70V0.253165H77.4844C78.8212 0.253165 79.9698 0.4782 80.93 0.928271C81.8903 1.37834 82.6152 1.98781 83.1048 2.75668C83.5943 3.5068 83.8391 4.35068 83.8391 5.28833C83.8391 6.4135 83.5378 7.35115 82.9353 8.10127C82.3328 8.85138 81.5231 9.40459 80.5064 9.7609ZM73.2197 8.46695H77.202C78.2564 8.46695 79.0754 8.23254 79.6591 7.76371C80.2616 7.27614 80.5629 6.58228 80.5629 5.68214C80.5629 4.80075 80.2616 4.11627 79.6591 3.62869C79.0754 3.12236 78.2564 2.8692 77.202 2.8692H73.2197V8.46695ZM77.5691 17.1871C78.6612 17.1871 79.5179 16.9245 80.1392 16.3994C80.7606 15.8744 81.0713 15.143 81.0713 14.2053C81.0713 13.2489 80.7418 12.4895 80.0827 11.9269C79.4237 11.3643 78.5482 11.083 77.4562 11.083H73.2197V17.1871H77.5691Z"
    fill="#05F0B0"
  />
  <path
    d="M97.9855 19.8031L93.4666 11.9831H91.0095V19.8031H87.7898V0.253165H94.5681C96.0744 0.253165 97.3453 0.515706 98.3809 1.04079C99.4353 1.56587 100.217 2.2691 100.725 3.15049C101.252 4.03188 101.516 5.01641 101.516 6.10408C101.516 7.37928 101.139 8.54196 100.386 9.59212C99.6518 10.6235 98.5127 11.3268 96.9688 11.7018L101.827 19.8031H97.9855ZM91.0095 9.42335H94.5681C95.7731 9.42335 96.6769 9.1233 97.2794 8.52321C97.9008 7.92311 98.2114 7.11674 98.2114 6.10408C98.2114 5.09142 97.9102 4.3038 97.3077 3.74121C96.7052 3.15987 95.792 2.8692 94.5681 2.8692H91.0095V9.42335Z"
    fill="#05F0B0"
  />
  <path
    d="M108.854 0.253165V19.8031H105.635V0.253165H108.854Z"
    fill="#05F0B0"
  />
  <path
    d="M119.493 0.253165C121.583 0.253165 123.409 0.656353 124.972 1.46273C126.554 2.25035 127.768 3.39428 128.615 4.89451C129.481 6.376 129.914 8.11064 129.914 10.0985C129.914 12.0863 129.481 13.8115 128.615 15.2743C127.768 16.737 126.554 17.8622 124.972 18.6498C123.409 19.4187 121.583 19.8031 119.493 19.8031H113.082V0.253165H119.493ZM119.493 17.1871C121.79 17.1871 123.55 16.5682 124.774 15.3305C125.998 14.0928 126.61 12.3488 126.61 10.0985C126.61 7.82935 125.998 6.0572 124.774 4.782C123.55 3.5068 121.79 2.8692 119.493 2.8692H116.301V17.1871H119.493Z"
    fill="#05F0B0"
  />
  <path
    d="M147.312 5.87904C146.803 4.90389 146.097 4.17253 145.193 3.68495C144.29 3.17862 143.245 2.92546 142.058 2.92546C140.759 2.92546 139.601 3.21613 138.585 3.79747C137.568 4.37881 136.768 5.20394 136.184 6.27285C135.619 7.34177 135.337 8.57947 135.337 9.98594C135.337 11.3924 135.619 12.6395 136.184 13.7271C136.768 14.7961 137.568 15.6212 138.585 16.2025C139.601 16.7839 140.759 17.0745 142.058 17.0745C143.81 17.0745 145.231 16.587 146.323 15.6118C147.415 14.6367 148.084 13.3146 148.328 11.6456H140.957V9.08579H151.774V11.5893C151.567 13.1083 151.021 14.5054 150.136 15.7806C149.27 17.0558 148.131 18.0778 146.719 18.8467C145.325 19.5968 143.772 19.9719 142.058 19.9719C140.213 19.9719 138.528 19.5499 137.003 18.706C135.478 17.8434 134.263 16.6526 133.36 15.1336C132.475 13.6146 132.032 11.8987 132.032 9.98594C132.032 8.07314 132.475 6.35724 133.36 4.83826C134.263 3.31927 135.478 2.13783 137.003 1.29395C138.547 0.431317 140.232 0 142.058 0C144.148 0 146.003 0.515706 147.622 1.54712C149.26 2.55978 150.447 4.00375 151.181 5.87904H147.312Z"
    fill="#05F0B0"
  />
  <path
    d="M158.169 2.84107V8.57946H164.948V11.1955H158.169V17.1871H165.795V19.8031H154.95V0.225036H165.795V2.84107H158.169Z"
    fill="#05F0B0"
  />
  <defs>
    <linearGradient
      id="paint0_linear_19_249"
      x1="-37.5"
      y1="-12.5"
      x2="-15.2122"
      y2="43.6344"
      gradientUnits="userSpaceOnUse"
    >
      <stop stop-color="#5D07F9" />
      <stop offset="1" stop-color="#05F0B0" />
    </linearGradient>
    <linearGradient
      id="paint1_linear_19_249"
      x1="-37.5"
      y1="-12.5"
      x2="-15.2122"
      y2="43.6344"
      gradientUnits="userSpaceOnUse"
    >
      <stop stop-color="#5D07F9" />
      <stop offset="1" stop-color="#05F0B0" />
    </linearGradient>
    <linearGradient
      id="paint2_linear_19_249"
      x1="-37.5"
      y1="-12.5"
      x2="-15.2122"
      y2="43.6344"
      gradientUnits="userSpaceOnUse"
    >
      <stop stop-color="#5D07F9" />
      <stop offset="1" stop-color="#05F0B0" />
    </linearGradient>
    <linearGradient
      id="paint3_linear_19_249"
      x1="-37.5"
      y1="-12.5"
      x2="-15.2122"
      y2="43.6344"
      gradientUnits="userSpaceOnUse"
    >
      <stop stop-color="#5D07F9" />
      <stop offset="1" stop-color="#05F0B0" />
    </linearGradient>
  </defs>
</svg>
