<svg xmlns="http://www.w3.org/2000/svg" width="37" height="37" fill="none"><path fill="#454545" d="M0 0h37v37H0z"/><g clip-path="url(#a)"><path fill="#0F0F0F" d="M-291-16H69v8352h-360z"/><g filter="url(#b)"><path fill="#0F0F0F" fill-opacity=".6" d="M-291-16H69v69h-360z"/><rect width="37" height="37" fill="url(#c)" rx="18.5"/><g fill="#fff"><path d="M27.95 11.15H9.05a1.05 1.05 0 1 1 0-2.1h18.9a1.05 1.05 0 0 1 0 2.1ZM27.95 19.55H9.05a1.05 1.05 0 0 1 0-2.1h18.9a1.05 1.05 0 0 1 0 2.1ZM27.95 27.95H9.05a1.05 1.05 0 1 1 0-2.1h18.9a1.05 1.05 0 0 1 0 2.1Z"/></g></g></g><defs><linearGradient id="c" x1="0" x2="36.094" y1="0" y2="37" gradientUnits="userSpaceOnUse"><stop stop-color="#5D07F9"/><stop offset="1" stop-color="#05F0B0"/></linearGradient><clipPath id="a"><path fill="#fff" d="M-291-16H69v8352h-360z"/></clipPath><filter id="b" width="420" height="129" x="-321" y="-46" color-interpolation-filters="sRGB" filterUnits="userSpaceOnUse"><feFlood flood-opacity="0" result="BackgroundImageFix"/><feGaussianBlur in="BackgroundImageFix" stdDeviation="15"/><feComposite in2="SourceAlpha" operator="in" result="effect1_backgroundBlur_0_1"/><feBlend in="SourceGraphic" in2="effect1_backgroundBlur_0_1" result="shape"/></filter></defs></svg>